Coordinates
version=1
nRows=31
nColumns=34
inDegrees=no

Units are S.I. units (second, meters, Newtons, ...)
If the header above contains a line with 'inDegrees', this indicates whether rotational values are in degrees (yes) or radians (no).

endheader
time	pelvis_tilt	pelvis_list	pelvis_rotation	pelvis_tx	pelvis_ty	pelvis_tz	hip_flexion_r	hip_adduction_r	hip_rotation_r	knee_angle_r	ankle_angle_r	subtalar_angle_r	mtp_angle_r	hip_flexion_l	hip_adduction_l	hip_rotation_l	knee_angle_l	ankle_angle_l	subtalar_angle_l	mtp_angle_l	lumbar_extension	lumbar_bending	lumbar_rotation	arm_flex_r	arm_add_r	arm_rot_r	elbow_flex_r	pro_sup_r	arm_flex_l	arm_add_l	arm_rot_l	elbow_flex_l	pro_sup_l
0.964	-0.324689	0.175065	-0.0774325	3.27469	0.940452	0.260918	-0.473681	-0.222585	-0.104205	0.584246	-0.560127	-0.119965	0.0260578	1.33545	-0.0332158	-0.223763	0.999425	0.0644098	-0.114002	-0.372316	0.175687	-0.259849	0.226115	0.784719	-0.329905	0.00818104	2.07224	2.43946	-1.37621	-0.247799	-0.563263	0.857976	1.97524
0.968	-0.316212	0.170882	-0.0603263	3.31307	0.942444	0.260472	-0.474866	-0.216635	-0.120335	0.667377	-0.569679	-0.121657	0.0208111	1.29675	-0.012854	-0.222023	0.907743	0.0706568	-0.0383241	-0.414517	0.155119	-0.262958	0.203788	0.749126	-0.3343	0.00527793	2.08993	2.45791	-1.34997	-0.245617	-0.559676	0.860665	1.96574
0.972	-0.307882	0.163356	-0.0467885	3.35123	0.944406	0.260313	-0.470294	-0.209231	-0.129173	0.756604	-0.578004	-0.123883	-0.034586	1.25811	0.000336972	-0.22256	0.823133	0.0687059	0.0326663	-0.496352	0.135219	-0.260531	0.184725	0.708399	-0.33836	0.00312895	2.10216	2.47175	-1.32141	-0.24552	-0.548689	0.868149	1.94257
0.976	-0.29839	0.151575	-0.0372366	3.38926	0.946064	0.260609	-0.460753	-0.198041	-0.130345	0.853446	-0.58205	-0.1404	-0.114214	1.22048	0.00473709	-0.227422	0.750986	0.0642858	0.0986504	-0.504895	0.114604	-0.252407	0.168849	0.664145	-0.341965	0.00570732	2.11008	2.45954	-1.29152	-0.246153	-0.539034	0.875654	1.94892
0.98	-0.28814	0.137434	-0.0307019	3.42713	0.947384	0.261335	-0.448814	-0.184695	-0.124317	0.951274	-0.584601	-0.14458	-0.194695	1.18477	0.0023696	-0.237591	0.691014	0.0539076	0.154989	-0.554916	0.093769	-0.240474	0.156339	0.618312	-0.345154	0.00462416	2.10954	2.47517	-1.26124	-0.248919	-0.523094	0.891744	1.93437
0.984	-0.277881	0.124464	-0.0255169	3.46479	0.948419	0.262114	-0.434514	-0.172339	-0.117506	1.05108	-0.578319	-0.152436	-0.208813	1.15034	-0.00181318	-0.253846	0.641334	0.045586	0.198322	-0.557614	0.073238	-0.229171	0.145842	0.570437	-0.347479	0.00603218	2.10327	2.47107	-1.22976	-0.253386	-0.507389	0.908061	1.94234
0.988	-0.266663	0.114656	-0.0226554	3.50233	0.949319	0.262658	-0.419601	-0.165108	-0.110998	1.15094	-0.566538	-0.157228	-0.215691	1.1157	-0.00599233	-0.276058	0.601696	0.0408377	0.22349	-0.566603	0.0517986	-0.219858	0.137745	0.522484	-0.349011	0.00515938	2.08814	2.48337	-1.19644	-0.25823	-0.484945	0.931812	1.92656
0.992	-0.255845	0.109099	-0.0184503	3.53983	0.94999	0.263091	-0.404648	-0.161056	-0.107247	1.249	-0.549337	-0.159851	-0.217431	1.08207	-0.0060519	-0.302227	0.571452	0.0394332	0.22844	-0.557498	0.0307931	-0.215134	0.129186	0.472421	-0.348397	0.00556098	2.06786	2.47749	-1.16205	-0.265903	-0.463623	0.952686	1.93761
0.996	-0.243003	0.10567	-0.0117655	3.57711	0.950563	0.263421	-0.392356	-0.157331	-0.106023	1.34518	-0.523217	-0.162651	-0.215084	1.04796	-0.00224247	-0.328569	0.551534	0.0386413	0.214061	-0.561813	0.00647736	-0.212353	0.117299	0.424764	-0.345436	0.00374399	2.03854	2.48688	-1.12586	-0.27533	-0.438114	0.977531	1.93442
1	-0.231209	0.105764	-0.00722399	3.61434	0.950918	0.26344	-0.377559	-0.158875	-0.104649	1.44079	-0.498734	-0.170096	-0.201237	1.01762	0.00186523	-0.355511	0.544044	0.0371995	0.185184	-0.53375	-0.0159733	-0.212306	0.10753	0.376983	-0.341311	0.00341707	2.00309	2.4786	-1.08733	-0.285255	-0.411922	1.00112	1.93751
1.004	-0.220971	0.107076	-0.00191001	3.65153	0.951055	0.263346	-0.36069	-0.162676	-0.104857	1.53464	-0.475607	-0.176185	-0.20213	0.990324	0.00693946	-0.377515	0.544956	0.0325194	0.15063	-0.52915	-0.0368107	-0.213113	0.096943	0.330149	-0.335696	-0.000858943	1.95895	2.4862	-1.04655	-0.29574	-0.38437	1.02418	1.93377
1.008	-0.21218	0.108778	0.004142	3.68846	0.951069	0.263394	-0.340751	-0.165585	-0.104167	1.62733	-0.454914	-0.186277	-0.191379	0.965314	0.011863	-0.397483	0.553046	0.026352	0.114913	-0.465972	-0.0564676	-0.214517	0.0860168	0.284052	-0.327619	-0.00422414	1.90959	2.46991	-1.00315	-0.307624	-0.357163	1.04572	1.93708
1.012	-0.206074	0.110993	0.0115109	3.72506	0.950872	0.263325	-0.316211	-0.170474	-0.104397	1.71915	-0.437752	-0.193608	-0.188574	0.943106	0.0171557	-0.414481	0.565312	0.0134643	0.083954	-0.460574	-0.0737805	-0.216009	0.073257	0.241181	-0.317942	-0.0112735	1.85095	2.47425	-0.957062	-0.319126	-0.328949	1.0664	1.93234
1.016	-0.201851	0.112758	0.019836	3.76145	0.950473	0.263294	-0.288287	-0.174339	-0.10367	1.80942	-0.423003	-0.204355	-0.186454	0.922836	0.0221461	-0.426104	0.581828	0.00206331	0.0633731	-0.432542	-0.0887365	-0.217084	0.0605495	0.199631	-0.306593	-0.0169064	1.78844	2.45048	-0.908503	-0.332532	-0.29875	1.08418	1.93384
1.02	-0.197271	0.114417	0.0290401	3.79781	0.949957	0.263358	-0.259787	-0.178823	-0.10331	1.8968	-0.411109	-0.210719	-0.190057	0.901904	0.0271988	-0.431643	0.601089	-0.00902853	0.0560355	-0.433987	-0.104015	-0.217994	0.0464548	0.162399	-0.293908	-0.0271666	1.71683	2.45063	-0.857873	-0.346575	-0.266563	1.10201	1.92721
1.024	-0.19386	0.117779	0.0383637	3.83435	0.94915	0.26308	-0.229435	-0.187132	-0.102124	1.98144	-0.399722	-0.21818	-0.191475	0.880781	0.0342934	-0.432507	0.620349	-0.0177996	0.0608562	-0.439381	-0.116644	-0.2202	0.0327006	0.127892	-0.280937	-0.0394287	1.63853	2.44699	-0.805783	-0.361335	-0.231378	1.11878	1.92126
1.028	-0.192423	0.120753	0.0484466	3.87075	0.948073	0.262534	-0.19529	-0.196436	-0.0993704	2.06404	-0.388752	-0.225144	-0.20102	0.860984	0.0424031	-0.428205	0.63962	-0.0222376	0.0681776	-0.439204	-0.126765	-0.221376	0.0185653	0.0956566	-0.268049	-0.0449803	1.5624	2.38941	-0.749943	-0.374705	-0.196377	1.13067	1.92241
1.032	-0.195675	0.124333	0.0630905	3.90671	0.946596	0.261274	-0.155416	-0.208662	-0.0975791	2.14514	-0.37449	-0.225481	-0.202846	0.846885	0.0571134	-0.413767	0.661454	-0.0181794	0.065013	-0.445154	-0.132626	-0.222158	0.000842094	0.0673279	-0.257034	-0.0582197	1.4768	2.38378	-0.690817	-0.388129	-0.156222	1.14263	1.91092
1.036	-0.201122	0.123257	0.0791827	3.94251	0.944606	0.260086	-0.110804	-0.216381	-0.0932852	2.22358	-0.360948	-0.223898	-0.220763	0.835009	0.0697645	-0.391607	0.688597	0.0121783	0.0664839	-0.413415	-0.135102	-0.217954	-0.0176891	0.0419109	-0.246896	-0.0674692	1.39195	2.34369	-0.629719	-0.399638	-0.114934	1.15528	1.88996
1.04	-0.208352	0.118107	0.0973459	3.97862	0.942238	0.259263	-0.0630687	-0.218988	-0.089048	2.29772	-0.346798	-0.221537	-0.237708	0.824884	0.0816502	-0.364851	0.72741	0.0733495	0.0626751	-0.296056	-0.133685	-0.210339	-0.037291	0.0188417	-0.236479	-0.0812176	1.29981	2.33804	-0.567519	-0.411424	-0.06949	1.16852	1.85262
1.044	-0.211644	0.110203	0.112602	4.01519	0.939765	0.259166	-0.0167726	-0.217319	-0.0809153	2.36696	-0.332277	-0.218907	-0.257254	0.808336	0.0877522	-0.346565	0.776183	0.156202	0.0504009	-0.130725	-0.134427	-0.200978	-0.0544191	-0.00238341	-0.226161	-0.085199	1.21357	2.26952	-0.503822	-0.422933	-0.0279917	1.18038	1.83998
1.048	-0.21299	0.098549	0.133454	4.05171	0.937358	0.25907	0.0271879	-0.209542	-0.082543	2.42959	-0.318278	-0.223026	-0.283261	0.791796	0.0933818	-0.320416	0.831066	0.241101	0.038125	-0.0320993	-0.137547	-0.186924	-0.0770397	-0.0200914	-0.217072	-0.0957951	1.1199	2.26475	-0.436758	-0.433106	0.0158905	1.19269	1.81183
1.052	-0.216226	0.090016	0.151302	4.08824	0.934713	0.259362	0.0787262	-0.210846	-0.0743759	2.49027	-0.306188	-0.207041	-0.290562	0.777083	0.0986973	-0.296829	0.879828	0.302133	0.0181477	-0.0146367	-0.137774	-0.177502	-0.0978051	-0.0368968	-0.207952	-0.102456	1.02952	2.24387	-0.368294	-0.44238	0.055571	1.19901	1.81747
1.056	-0.216381	0.0810292	0.173495	4.12518	0.932406	0.259765	0.126006	-0.211438	-0.074728	2.542	-0.300349	-0.201342	-0.328869	0.758577	0.102138	-0.27197	0.924872	0.346312	-0.008786	0.00809679	-0.140893	-0.166932	-0.123921	-0.0525185	-0.198405	-0.109454	0.937971	2.23153	-0.298886	-0.449675	0.0951378	1.21132	1.78933
1.06	-0.214203	0.0735893	0.19838	4.16234	0.930473	0.259984	0.170844	-0.215801	-0.0785818	2.58591	-0.296447	-0.196234	-0.341153	0.734783	0.10663	-0.242878	0.965821	0.384625	-0.0213118	0.00381669	-0.14649	-0.156516	-0.154721	-0.0677251	-0.18977	-0.113139	0.850232	2.20835	-0.228998	-0.454773	0.128706	1.21811	1.79519
1.064	-0.210567	0.0695018	0.224809	4.19968	0.929193	0.259759	0.214238	-0.227239	-0.0847529	2.62136	-0.299652	-0.197301	-0.361866	0.703746	0.114432	-0.210613	0.997665	0.418474	-0.0245341	-0.00106058	-0.153225	-0.147806	-0.186583	-0.0851198	-0.182731	-0.120069	0.765171	2.20197	-0.156229	-0.457195	0.163417	1.22526	1.78525
1.068	-0.208458	0.0658677	0.254569	4.23661	0.928455	0.259049	0.26048	-0.243198	-0.0923988	2.64935	-0.302862	-0.19118	-0.413843	0.669602	0.123054	-0.175763	1.02026	0.442899	-0.0212491	-0.0579348	-0.158678	-0.138223	-0.221647	-0.104829	-0.176315	-0.12359	0.693455	2.1531	-0.0824383	-0.456461	0.194013	1.23074	1.78665
1.072	-0.206105	0.0620965	0.285521	4.27362	0.928482	0.257963	0.307459	-0.261045	-0.101435	2.66906	-0.302212	-0.180792	-0.418122	0.628811	0.130923	-0.135827	1.03273	0.466903	-0.011397	-0.0745043	-0.163546	-0.12717	-0.257755	-0.125838	-0.171907	-0.133692	0.62259	2.14978	-0.00921711	-0.451307	0.221169	1.23709	1.77657
1.076	-0.202355	0.0613718	0.312483	4.31109	0.929137	0.256712	0.353628	-0.284506	-0.105949	2.68095	-0.297099	-0.161031	-0.438143	0.579688	0.1373	-0.0959397	1.03461	0.486205	-0.00305241	-0.139562	-0.168885	-0.118614	-0.289571	-0.150872	-0.168732	-0.14338	0.563312	2.13276	0.0621247	-0.442457	0.242132	1.24152	1.77949
1.08	-0.197571	0.0574342	0.336383	4.3488	0.930059	0.255379	0.401094	-0.303528	-0.111992	2.6851	-0.284254	-0.140165	-0.43425	0.526684	0.135888	-0.0546701	1.02904	0.505267	0.0136628	-0.157095	-0.172358	-0.105971	-0.317453	-0.180015	-0.169145	-0.154008	0.512748	2.13841	0.12804	-0.428639	0.255284	1.25222	1.76949
1.084	-0.189941	0.0490504	0.354829	4.38718	0.931229	0.254369	0.448744	-0.314081	-0.117824	2.68052	-0.270732	-0.10441	-0.455143	0.469594	0.122125	-0.0172962	1.01622	0.517518	0.0334533	-0.25145	-0.174586	-0.0883622	-0.338694	-0.213635	-0.172462	-0.16533	0.47049	2.1627	0.189478	-0.411723	0.259841	1.26146	1.79033
